<?xml version="1.0" standalone="no"?>
<!DOCTYPE svg PUBLIC "-//W3C//DTD SVG 20010904//EN"
 "http://www.w3.org/TR/2001/REC-SVG-20010904/DTD/svg10.dtd">
<svg version="1.0" xmlns="http://www.w3.org/2000/svg"
 width="256.000000pt" height="256.000000pt" viewBox="0 0 256.000000 256.000000"
 preserveAspectRatio="xMidYMid meet">

<g transform="translate(0.000000,256.000000) scale(0.100000,-0.100000)"
fill="#000000" stroke="none">
<path d="M1105 2515 c-466 -65 -854 -378 -1022 -824 -61 -161 -87 -367 -71
-554 40 -474 333 -880 771 -1067 107 -45 129 -48 157 -20 18 18 20 33 20 133
l0 113 -112 -1 c-95 0 -120 3 -159 21 -71 33 -125 88 -161 163 -43 91 -84 147
-140 188 -67 49 -63 83 10 83 38 0 122 -42 153 -76 14 -16 41 -50 59 -76 73
-105 185 -142 302 -102 43 14 47 19 63 67 9 29 28 66 41 84 l24 31 -52 7
c-147 20 -285 82 -368 165 -106 106 -154 240 -155 435 0 159 25 245 97 337 27
34 28 40 19 75 -23 80 -5 271 29 306 22 24 199 -34 302 -100 l46 -29 89 18
c121 25 345 25 466 0 l89 -18 46 29 c103 66 280 124 302 100 34 -35 52 -226
29 -306 -9 -35 -8 -41 19 -75 64 -81 90 -159 98 -292 14 -232 -69 -431 -222
-535 -63 -43 -216 -98 -306 -110 l-47 -6 28 -42 c45 -69 51 -107 51 -346 0
-208 1 -222 20 -241 28 -28 48 -25 148 16 311 129 563 382 690 692 119 292
126 648 19 933 -213 567 -780 907 -1372 824z"/>
</g>
</svg>
