<?xml version="1.0" standalone="no"?>
<!DOCTYPE svg PUBLIC "-//W3C//DTD SVG 20010904//EN"
 "http://www.w3.org/TR/2001/REC-SVG-20010904/DTD/svg10.dtd">
<svg version="1.0" xmlns="http://www.w3.org/2000/svg"
 width="640.000000pt" height="472.000000pt" viewBox="0 0 640.000000 472.000000"
 preserveAspectRatio="xMidYMid meet">

<g transform="translate(0.000000,472.000000) scale(0.100000,-0.100000)"
fill="#000000" stroke="none">
<path d="M267 4592 c-14 -15 -17 -40 -17 -129 0 -107 1 -111 25 -127 13 -9 36
-16 50 -16 l25 0 0 -338 0 -338 25 -22 c22 -20 37 -22 129 -22 95 0 105 2 129
24 l26 24 -2 465 c-2 495 -2 498 -51 496 -21 0 -21 0 2 -11 l22 -11 0 -469 0
-468 -125 0 -125 0 -2 358 -3 357 -47 3 -48 3 0 110 c0 104 1 110 23 119 21 8
21 9 1 9 -11 1 -28 -7 -37 -17z"/>
<path d="M1156 4590 c-26 -10 -56 -26 -65 -34 -9 -8 -23 -16 -31 -18 -24 -5
-69 -59 -92 -108 -12 -26 -23 -76 -26 -118 -7 -106 0 -112 143 -112 125 0 145
9 145 66 0 57 10 75 39 72 24 -3 26 -6 26 -53 -1 -64 -33 -131 -125 -262 -38
-54 -75 -105 -83 -113 -7 -8 -55 -70 -107 -137 -78 -103 -91 -125 -80 -138 7
-8 19 -15 26 -15 8 0 14 -4 14 -10 0 -6 107 -10 300 -10 l301 0 26 24 c25 23
25 26 21 129 -4 111 -14 138 -52 136 -15 0 -16 -2 -6 -6 26 -10 30 -26 30
-130 l0 -103 -320 0 -321 0 43 58 c23 31 103 138 177 237 73 99 145 204 158
232 32 70 41 154 20 186 -41 63 -107 24 -107 -63 l0 -50 -126 0 -127 0 7 62
c12 117 75 211 175 260 38 19 62 23 136 22 79 0 96 -4 137 -28 58 -34 114 -95
140 -154 17 -37 20 -61 16 -136 -6 -134 -38 -198 -186 -365 -42 -48 -48 -58
-30 -54 13 3 28 10 35 15 7 5 14 5 18 -2 3 -5 36 -10 73 -9 56 1 62 2 37 10
-16 5 -44 8 -62 7 -18 -1 -35 1 -39 4 -3 4 17 35 45 69 90 112 141 234 141
339 0 55 -21 137 -46 179 -19 33 -112 99 -176 126 -52 21 -161 19 -222 -5z"/>
<path d="M2028 4601 c-52 -17 -138 -72 -167 -108 -28 -34 -61 -126 -61 -170 0
-39 40 -53 147 -53 102 0 132 11 146 53 11 30 44 21 51 -14 7 -37 -5 -56 -49
-76 l-30 -13 30 2 c45 4 75 45 75 102 0 38 -4 48 -25 62 -23 15 -27 15 -49 0
-14 -8 -26 -26 -28 -38 -3 -22 -7 -23 -124 -26 l-122 -3 9 45 c18 100 99 193
188 220 70 20 207 6 265 -28 149 -87 179 -287 60 -391 l-35 -31 49 -49 c40
-40 52 -60 61 -103 15 -70 14 -88 -5 -151 -17 -60 -78 -132 -134 -161 -54 -27
-145 -43 -209 -35 -148 18 -245 109 -264 247 -5 31 -2 41 16 53 16 11 17 15 6
15 -9 0 -24 -9 -34 -20 -14 -16 -16 -29 -11 -67 14 -109 105 -224 203 -257 59
-20 184 -21 250 -1 69 20 143 89 182 167 27 52 31 72 31 137 0 83 -17 133 -64
189 l-28 32 25 30 c60 71 75 207 31 292 -21 40 -83 92 -154 128 -49 26 -181
37 -232 21z"/>
<path d="M2921 4601 c-14 -9 -60 -96 -211 -393 l-90 -178 0 -98 c0 -93 1 -100
25 -120 23 -20 35 -22 170 -22 l145 0 0 -73 c0 -66 3 -76 25 -95 22 -20 36
-22 128 -22 146 1 148 2 156 173 1 9 7 17 14 17 6 0 23 9 36 19 23 17 24 24
23 122 -1 77 -5 107 -17 118 -8 8 -18 11 -22 7 -5 -5 -2 -11 5 -13 8 -3 12
-34 12 -104 l0 -99 -40 0 -40 0 0 -95 0 -95 -125 0 -125 0 0 95 0 95 -170 0
-170 0 0 100 0 101 128 246 c70 136 132 261 138 277 5 16 19 33 30 37 12 5 14
8 4 8 -8 0 -21 -3 -29 -8z"/>
<path d="M3218 4598 l22 -11 0 -274 0 -273 27 0 c25 0 25 1 10 18 -15 16 -17
50 -17 273 0 267 -2 280 -44 278 -20 0 -20 -1 2 -11z"/>
<path d="M3658 4596 c-14 -10 -25 -69 -54 -290 -26 -196 -34 -280 -27 -287 12
-12 23 -12 143 -3 115 9 160 -8 160 -60 0 -51 -36 -76 -109 -76 -49 0 -193 38
-151 40 11 0 10 3 -4 11 -13 8 -25 8 -41 1 -20 -9 -24 -22 -34 -99 -7 -48 -13
-98 -15 -111 -2 -15 7 -34 29 -57 70 -71 270 -99 390 -54 74 28 165 116 203
196 24 52 27 69 27 163 0 114 -12 150 -64 200 -43 41 -152 100 -186 100 -30 0
-49 16 -42 34 5 13 25 16 120 16 155 0 157 2 153 149 -3 116 -12 142 -50 140
-19 0 -20 -1 -2 -8 10 -4 -60 -5 -157 -3 -171 4 -252 -1 -243 -17 3 -4 26 -6
51 -6 40 2 48 -1 60 -24 8 -14 14 -22 15 -18 0 5 -5 17 -10 28 -10 17 -7 19
34 19 32 0 48 -5 55 -17 10 -17 10 -17 11 0 0 14 9 17 55 17 54 0 54 0 45 -26
-6 -14 -10 -31 -9 -37 0 -7 6 4 13 23 12 32 15 34 59 35 l47 0 0 -102 0 -103
-135 0 -134 0 -6 -37 c-3 -21 -8 -46 -10 -56 -3 -14 1 -17 13 -12 26 10 147
-35 198 -74 72 -54 99 -114 99 -221 0 -66 -5 -96 -22 -132 -29 -63 -96 -134
-158 -166 -46 -25 -59 -27 -170 -27 -110 0 -126 2 -189 29 -65 28 -68 30 -62
57 3 16 8 59 12 96 8 89 11 98 28 84 31 -26 122 -48 190 -46 64 1 71 4 97 33
48 53 34 124 -29 156 -48 24 -98 27 -173 11 -40 -8 -75 -13 -77 -10 -2 2 -1
27 3 55 7 51 7 51 29 33 18 -16 18 -15 -2 8 -22 25 -23 31 -13 85 5 33 17 122
27 199 13 113 21 143 37 158 23 20 2 24 -25 3z"/>
<path d="M4619 4578 c-44 -71 -170 -337 -195 -413 -59 -181 -40 -344 53 -459
70 -88 130 -116 242 -116 103 0 162 23 230 91 96 97 135 220 113 352 -19 111
-52 161 -137 208 -38 21 -82 39 -97 39 -15 0 -29 4 -32 9 -3 5 26 64 64 132
96 169 96 170 35 185 l-30 7 24 -20 24 -20 -78 -139 c-43 -76 -85 -149 -93
-161 -16 -26 -2 -31 22 -8 17 17 36 20 36 5 0 -5 14 -10 31 -10 50 0 125 -47
158 -99 40 -63 54 -126 49 -220 -8 -138 -85 -248 -200 -287 -70 -23 -207 -16
-264 14 -56 29 -119 103 -141 165 -29 84 -23 211 15 322 38 114 198 438 220
447 14 5 12 7 -6 7 -15 1 -29 -10 -43 -31z"/>
<path d="M5237 4592 c-14 -15 -17 -40 -17 -129 0 -143 0 -143 165 -143 l115 0
-34 -67 c-18 -38 -89 -189 -156 -338 l-122 -270 29 -22 c25 -21 38 -23 144
-23 132 0 133 0 176 92 69 149 372 828 384 860 15 44 14 46 -32 54 l-34 7 24
-20 24 -19 -208 -462 -207 -462 -134 0 c-74 0 -134 2 -134 4 0 9 220 486 259
563 22 43 49 92 60 108 12 17 21 33 21 37 0 4 -68 7 -151 7 -83 -1 -152 1
-154 3 -2 2 -5 51 -6 108 -2 102 -1 105 22 117 23 12 23 13 3 13 -11 0 -28 -8
-37 -18z"/>
<path d="M320 4590 c-15 -5 31 -8 118 -9 88 -1 142 3 142 9 0 12 -223 12 -260
0z"/>
<path d="M2970 4590 c0 -11 206 -7 217 4 3 3 -44 6 -105 6 -67 0 -112 -4 -112
-10z"/>
<path d="M4693 4594 c9 -9 146 -11 160 -2 7 4 -28 8 -77 8 -49 0 -87 -3 -83
-6z"/>
<path d="M5290 4590 c-14 -4 112 -8 280 -8 179 0 297 3 285 8 -25 11 -531 11
-565 0z"/>
<path d="M3701 4544 c0 -11 3 -14 6 -6 3 7 2 16 -1 19 -3 4 -6 -2 -5 -13z"/>
<path d="M3890 4555 c0 -5 5 -17 10 -25 5 -8 10 -10 10 -5 0 6 -5 17 -10 25
-5 8 -10 11 -10 5z"/>
<path d="M3691 4504 c0 -11 3 -14 6 -6 3 7 2 16 -1 19 -3 4 -6 -2 -5 -13z"/>
<path d="M3830 4515 c0 -5 5 -17 10 -25 5 -8 10 -10 10 -5 0 6 -5 17 -10 25
-5 8 -10 11 -10 5z"/>
<path d="M3891 4494 c0 -11 3 -14 6 -6 3 7 2 16 -1 19 -3 4 -6 -2 -5 -13z"/>
<path d="M3996 4474 c-4 -14 -5 -28 -3 -31 3 -2 8 8 11 23 4 14 5 28 3 31 -3
2 -8 -8 -11 -23z"/>
<path d="M3981 4414 c0 -11 3 -14 6 -6 3 7 2 16 -1 19 -3 4 -6 -2 -5 -13z"/>
<path d="M3661 4404 c0 -11 3 -14 6 -6 3 7 2 16 -1 19 -3 4 -6 -2 -5 -13z"/>
<path d="M2971 4249 c-14 -28 -44 -85 -68 -127 -24 -41 -43 -76 -43 -77 0 -7
102 0 106 7 4 6 10 5 15 -3 16 -26 20 0 17 125 l-3 127 -24 -52z m3 -181 c-6
-9 -64 -11 -64 -2 0 4 12 29 27 57 l28 50 7 -48 c4 -27 5 -52 2 -57z"/>
<path d="M3670 4261 c0 -10 19 -25 25 -20 1 2 -3 10 -11 17 -8 7 -14 8 -14 3z"/>
<path d="M3821 4254 c0 -11 3 -14 6 -6 3 7 2 16 -1 19 -3 4 -6 -2 -5 -13z"/>
<path d="M2030 4230 c-17 -17 -20 -33 -20 -120 0 -113 6 -122 88 -135 49 -8
69 -36 58 -79 -12 -47 -86 -41 -86 7 0 26 -17 47 -39 47 -11 0 -9 -5 7 -16 12
-8 22 -21 21 -27 -3 -27 2 -36 30 -50 27 -13 32 -13 60 4 28 17 31 24 31 67 0
62 -29 92 -94 99 l-46 6 0 89 c0 49 5 98 10 109 14 25 5 24 -20 -1z"/>
<path d="M3672 4160 c0 -19 2 -27 5 -17 2 9 2 25 0 35 -3 9 -5 1 -5 -18z"/>
<path d="M4681 4064 c-30 -38 -30 -154 -1 -202 17 -28 25 -33 52 -30 49 5 71
43 72 127 0 56 -4 76 -20 98 -30 40 -75 43 -103 7z m84 -45 c11 -33 7 -130 -5
-144 -6 -8 -21 -16 -33 -18 -12 -2 -7 -4 10 -3 19 1 29 -2 24 -7 -5 -5 -21 -7
-37 -5 -30 3 -31 8 -35 103 -3 73 6 95 41 95 20 0 31 -6 35 -21z"/>
<path d="M1860 3930 c0 -6 35 -10 88 -9 59 1 79 4 62 9 -37 12 -150 12 -150 0z"/>
<path d="M5570 3555 c-7 -8 -12 -39 -12 -70 l-1 -57 -76 -60 c-84 -66 -103
-94 -121 -182 -27 -131 6 -214 137 -343 51 -50 93 -95 93 -100 0 -19 -25 -33
-57 -33 -39 0 -117 36 -108 50 3 5 -4 14 -15 20 -29 15 -25 -2 8 -32 51 -48
131 -75 147 -48 3 5 12 7 19 4 18 -7 36 44 25 73 -4 12 -41 49 -81 82 -84 69
-113 104 -134 163 -19 53 -18 153 2 211 20 58 79 127 138 158 l45 24 3 70 3
70 48 1 c26 1 50 -3 54 -9 3 -6 5 -38 4 -72 l-2 -62 38 -6 c21 -3 55 -12 76
-21 l37 -16 0 -135 0 -135 -41 39 c-67 66 -140 75 -169 22 -17 -32 8 -69 95
-136 45 -35 88 -79 103 -105 25 -41 27 -54 27 -150 0 -89 -3 -111 -22 -145
-22 -42 -79 -100 -126 -128 -25 -16 -27 -21 -22 -70 7 -63 -1 -77 -46 -79 -70
-2 -69 -3 -69 62 l0 60 -43 0 c-24 0 -67 7 -95 15 l-52 16 -2 122 c0 67 -1
130 0 140 2 25 -15 21 -22 -5 -3 -13 -6 -77 -6 -144 0 -119 0 -121 27 -144 33
-29 86 -49 129 -50 33 0 44 -17 44 -69 0 -32 27 -50 75 -51 64 0 85 21 85 86
0 53 1 56 55 106 35 33 67 75 88 117 29 60 32 74 32 161 0 85 -3 100 -28 145
-15 28 -43 61 -62 74 -19 13 -32 28 -28 34 3 6 1 7 -6 3 -15 -9 -101 74 -101
98 0 11 9 16 30 16 39 0 79 -18 117 -53 27 -25 35 -28 48 -17 12 10 15 39 15
160 0 130 -2 149 -18 163 -20 19 -37 23 -27 7 9 -14 4 -13 -48 10 -56 25 -61
33 -59 85 3 58 -12 72 -80 73 -37 0 -61 -5 -68 -13z"/>
<path d="M2799 3473 c-11 -13 -15 -84 -17 -344 l-3 -328 27 -18 c22 -14 49
-18 128 -18 158 -1 146 -30 146 365 0 304 -1 328 -18 343 -10 10 -25 17 -33
17 -9 0 -7 -5 6 -14 19 -13 20 -25 17 -340 l-3 -326 -119 0 -119 0 -3 326 -3
326 25 14 c23 12 24 13 4 14 -12 0 -28 -7 -35 -17z"/>
<path d="M2865 3470 c3 -5 35 -10 71 -10 41 0 63 4 59 10 -3 6 -35 10 -71 10
-41 0 -63 -4 -59 -10z"/>
<path d="M355 3423 c-74 -27 -168 -97 -189 -141 -21 -43 -32 -134 -22 -186 4
-19 22 -58 41 -87 19 -28 35 -55 35 -60 0 -6 -18 -28 -39 -50 -97 -101 -77
-272 46 -391 72 -71 129 -92 238 -92 72 0 100 4 142 23 63 28 146 112 175 178
41 94 21 249 -38 288 -39 26 -46 55 -19 85 56 61 76 151 55 239 -35 145 -266
251 -425 194z m248 -26 c59 -28 118 -83 142 -133 23 -49 22 -155 -3 -202 -10
-20 -38 -51 -61 -69 l-42 -32 29 -15 c40 -21 88 -77 102 -122 7 -22 11 -64 8
-105 -6 -82 -40 -146 -101 -190 -73 -53 -104 -62 -212 -63 -86 -1 -107 2 -149
23 -128 63 -192 180 -166 305 13 62 55 118 112 147 l40 20 -41 23 c-138 73
-129 288 16 390 87 61 224 70 326 23z"/>
<path d="M436 3217 c-21 -15 -32 -87 -18 -113 5 -9 17 -19 27 -20 15 -2 15 -1
2 14 -23 25 -11 74 17 70 24 -3 35 -50 17 -72 -8 -9 -7 -13 5 -13 37 0 42 91
7 129 -19 21 -33 23 -57 5z"/>
<path d="M415 2830 c-8 -16 -15 -44 -15 -62 1 -38 24 -86 34 -70 3 6 3 13 -2
16 -5 3 -6 24 -3 48 5 38 9 43 33 46 22 3 29 -2 33 -21 11 -41 2 -71 -25 -84
l-25 -13 28 3 c37 4 47 21 47 80 0 67 -13 87 -55 87 -28 0 -37 -6 -50 -30z"/>
<path d="M1235 3422 c-55 -19 -127 -65 -173 -112 -46 -46 -67 -118 -67 -230 1
-83 4 -103 29 -157 38 -84 125 -168 184 -178 23 -4 42 -10 42 -13 0 -4 -31
-63 -69 -131 -38 -69 -67 -129 -65 -135 10 -25 62 -36 174 -36 143 0 118 -23
240 219 132 263 166 422 121 569 -23 77 -48 108 -128 161 -90 60 -194 76 -288
43z m170 -6 c118 -33 166 -71 211 -171 24 -51 28 -73 28 -145 -1 -120 -36
-228 -142 -440 -101 -203 -88 -194 -258 -184 l-100 6 81 143 c45 79 87 151 95
160 18 21 8 28 -24 15 -137 -52 -276 92 -276 284 0 171 85 289 238 331 62 17
87 17 147 1z"/>
<path d="M1302 3223 c-25 -10 -42 -62 -42 -128 0 -71 12 -105 35 -105 8 0 15
-4 15 -10 0 -5 9 -10 21 -10 11 0 17 5 14 10 -3 6 3 10 14 10 32 0 43 35 39
122 -3 69 -6 82 -27 99 -23 19 -44 22 -69 12z m51 -55 c11 -10 17 -32 18 -82
2 -62 0 -71 -19 -84 -19 -13 -25 -12 -46 1 -22 15 -24 22 -22 83 2 52 6 70 21
80 23 17 27 17 48 2z"/>
<path d="M2123 3426 c-23 -7 -58 -23 -77 -36 -20 -12 -36 -19 -36 -15 0 15
-73 -74 -94 -115 -41 -78 -57 -150 -63 -275 -10 -221 40 -377 155 -487 87 -84
178 -106 292 -72 70 21 155 106 198 196 91 190 80 517 -22 675 -19 28 -105 93
-164 122 -36 19 -142 22 -189 7z m202 -26 c140 -68 206 -212 208 -455 2 -185
-32 -301 -114 -390 -66 -72 -108 -90 -209 -90 -76 0 -91 3 -138 29 -133 74
-194 216 -194 451 -1 175 29 282 104 377 77 98 230 133 343 78z"/>
<path d="M2162 3185 c-29 -36 -37 -97 -36 -260 1 -154 15 -217 49 -224 17 -3
18 -1 5 14 -18 22 -20 33 -26 205 -6 174 5 233 48 238 40 5 53 -45 53 -213 0
-165 -4 -204 -24 -227 -12 -16 -12 -18 1 -18 24 0 38 45 49 154 19 198 -11
347 -72 354 -19 2 -33 -4 -47 -23z"/>
<path d="M2191 2691 c-7 -5 -9 -11 -4 -14 5 -3 15 -2 22 2 7 5 9 11 4 14 -5 3
-15 2 -22 -2z"/>
<path d="M3710 3430 c-62 -11 -113 -33 -182 -80 -152 -104 -210 -219 -209
-416 0 -158 59 -293 174 -402 117 -109 279 -145 452 -101 69 18 149 59 173 89
l23 29 -21 41 c-11 22 -24 40 -28 40 -19 0 -4 52 26 89 129 160 132 406 8 561
-24 30 -48 55 -53 55 -5 0 -31 14 -59 32 -27 18 -68 39 -90 47 -54 19 -157 27
-214 16z m256 -48 c73 -37 147 -115 189 -198 28 -55 30 -66 30 -174 0 -103 -3
-121 -26 -170 -50 -107 -115 -160 -197 -160 -29 0 -46 7 -66 26 l-26 27 -37
-26 c-54 -37 -86 -42 -137 -23 -102 39 -156 213 -109 351 37 110 161 186 245
151 23 -10 39 -12 43 -6 6 10 97 14 106 5 3 -2 -3 -62 -13 -132 -26 -191 -29
-249 -13 -263 10 -8 19 -8 34 0 29 15 26 22 -5 14 -22 -6 -25 -4 -21 12 4 11
13 75 22 144 20 164 24 180 36 158 19 -34 28 -116 19 -170 -16 -90 -19 -100
-37 -114 -17 -13 -17 -13 4 -14 32 0 65 93 65 183 -1 100 -25 161 -87 223 -59
59 -123 85 -209 83 -178 -2 -319 -186 -303 -394 11 -140 71 -241 179 -301 49
-27 61 -29 158 -29 105 0 130 6 222 56 29 15 34 11 56 -41 l21 -50 -22 -14
c-44 -29 -128 -56 -212 -68 -282 -41 -502 137 -530 429 -9 88 7 180 44 259 40
85 83 138 156 189 95 66 127 74 270 71 79 -2 98 -6 151 -34z m-85 -138 c30 -9
57 -21 61 -28 11 -16 -73 -24 -132 -12 -43 9 -54 7 -106 -19 -101 -48 -133
-91 -154 -204 -20 -109 8 -214 76 -290 33 -36 56 -52 82 -58 46 -9 56 -7 112
18 l46 20 49 -25 50 -25 -30 -12 c-17 -6 -73 -12 -125 -13 -85 -1 -100 2 -146
26 -29 15 -68 46 -87 69 -69 80 -97 247 -62 367 47 156 201 235 366 186z"/>
<path d="M3762 3069 c-61 -23 -87 -232 -31 -246 11 -3 16 -9 13 -14 -3 -5 4
-9 15 -9 12 0 21 5 21 10 0 6 6 10 14 10 23 0 56 81 56 139 0 87 -34 130 -88
110z m60 -87 c5 -19 5 -47 -1 -69 -6 -20 -8 -39 -6 -43 2 -4 -7 -18 -21 -31
-20 -18 -28 -21 -42 -12 -14 8 -17 26 -17 85 0 85 13 111 54 106 19 -2 27 -11
33 -36z"/>
<path d="M4611 3413 c-5 -10 -15 -68 -22 -130 -11 -102 -14 -112 -36 -122 -13
-6 -32 -11 -41 -11 -15 0 -15 2 -2 10 13 8 13 10 -1 10 -28 0 -40 -26 -43 -95
-3 -57 0 -71 18 -90 12 -12 30 -24 41 -26 35 -7 29 -35 -12 -53 -26 -11 -30
-15 -13 -13 14 3 34 8 44 12 14 6 17 5 12 -3 -4 -7 -3 -12 2 -12 9 0 22 55 22
98 0 20 -5 22 -45 22 l-45 0 0 65 0 65 55 0 c30 0 55 1 55 3 0 1 7 56 15 122
8 65 15 123 15 127 0 4 20 8 44 8 25 0 48 5 52 11 5 9 -6 10 -39 7 -26 -3 -44
-2 -41 3 3 5 -2 9 -10 9 -8 0 -19 -8 -25 -17z m-24 -259 c-3 -3 -12 -4 -19 -1
-8 3 -5 6 6 6 11 1 17 -2 13 -5z"/>
<path d="M4759 3416 c9 -11 8 -43 -4 -137 -12 -95 -13 -124 -4 -133 9 -8 11
-7 6 5 -3 9 -2 20 3 25 10 11 30 154 28 204 -1 33 -12 49 -32 50 -5 0 -3 -6 3
-14z"/>
<path d="M4832 3418 c-13 -18 -36 -214 -27 -235 11 -25 22 27 31 137 4 59 11
89 22 98 14 11 14 12 0 12 -8 0 -20 -6 -26 -12z"/>
<path d="M4979 3416 c10 -11 9 -40 -3 -127 -20 -145 -21 -139 11 -139 25 0 26
1 11 16 -12 12 -14 24 -8 45 5 16 12 65 16 109 6 79 -1 110 -28 110 -6 0 -5
-6 1 -14z"/>
<path d="M4898 3413 c12 -2 30 -2 40 0 9 3 -1 5 -23 4 -22 0 -30 -2 -17 -4z"/>
<path d="M5020 3160 c0 -5 7 -10 15 -10 12 0 15 -14 15 -70 l0 -70 -54 0 -53
0 -7 -37 c-11 -68 -8 -78 19 -78 28 0 33 12 10 21 -23 9 1 44 31 44 13 0 36 7
49 16 23 15 25 23 25 93 0 76 -9 101 -37 101 -7 0 -13 -4 -13 -10z"/>
<path d="M4800 3149 c0 -5 5 -7 10 -4 6 3 10 8 10 11 0 2 -4 4 -10 4 -5 0 -10
-5 -10 -11z"/>
<path d="M4716 2973 c-9 -56 -7 -83 5 -83 5 0 7 4 4 10 -3 5 2 21 11 36 17 26
18 26 26 5 10 -28 28 -27 28 2 0 12 3 32 6 45 6 20 3 22 -34 22 -38 0 -40 -1
-46 -37z"/>
<path d="M4446 2898 c-10 -15 -16 -45 -16 -85 0 -51 4 -66 22 -83 12 -11 30
-20 40 -20 22 0 23 -25 7 -154 -11 -88 -11 -90 13 -108 16 -12 41 -18 79 -18
79 0 87 12 105 151 7 62 18 117 24 123 14 14 13 -34 -2 -146 -12 -90 -12 -90
13 -109 33 -25 129 -26 152 -1 10 10 22 60 31 131 9 62 19 117 22 122 3 5 16
9 30 9 14 0 36 7 49 16 23 15 25 23 25 93 0 67 -3 78 -21 89 -12 7 -24 10 -27
7 -4 -4 1 -11 11 -17 15 -8 18 -21 16 -74 l-2 -64 -53 0 -53 0 -5 -42 c-3 -24
-11 -86 -17 -139 l-11 -97 -37 -5 c-20 -2 -53 -2 -72 2 l-35 6 16 130 c9 72
15 133 13 138 -4 6 -73 11 -73 5 0 -2 -7 -59 -15 -128 -8 -69 -15 -131 -15
-137 0 -9 -21 -13 -70 -13 l-70 0 0 33 c0 17 7 77 14 132 8 54 12 103 10 107
-3 4 -23 8 -45 8 l-39 0 0 64 c0 45 5 69 16 80 14 14 14 16 0 16 -8 0 -22 -10
-30 -22z"/>
<path d="M2890 2750 c-11 -7 -2 -10 32 -10 25 0 55 -2 65 -5 10 -3 5 1 -12 9
-35 18 -64 20 -85 6z"/>
<path d="M2813 2709 c-38 -24 -58 -82 -48 -135 8 -44 65 -126 100 -143 116
-56 248 70 221 212 -7 39 -43 90 -57 82 -5 -4 1 -19 12 -34 29 -39 36 -109 15
-149 -48 -92 -166 -106 -236 -26 -25 30 -30 43 -30 89 0 46 4 59 31 90 36 41
35 42 -8 14z"/>
<path d="M3300 2335 c-7 -8 -11 -35 -8 -67 l3 -53 -45 3 c-49 3 -50 -4 -1 -18
19 -5 33 -5 37 1 3 5 10 7 15 3 5 -3 7 -10 4 -15 -4 -5 -1 -9 5 -9 8 0 10 21
5 73 -7 70 -6 74 17 84 22 11 22 12 2 12 -12 1 -27 -6 -34 -14z"/>
<path d="M3448 2334 c20 -14 22 -20 16 -83 -4 -44 -3 -71 4 -75 6 -3 13 -2 17
4 3 5 1 10 -5 10 -6 0 -8 5 -4 11 4 7 10 7 16 1 11 -11 65 1 82 18 5 5 15 10
21 10 12 0 58 -137 50 -149 -2 -4 -28 -13 -57 -20 -84 -18 -85 -21 -32 -85 26
-31 45 -58 43 -60 -2 -2 -31 -22 -64 -45 l-59 -42 -18 23 c-10 13 -28 40 -40
61 -12 20 -24 37 -27 37 -3 0 -23 -27 -44 -60 l-38 -60 -28 16 c-16 9 -45 31
-65 48 l-37 31 47 53 c25 29 44 56 41 59 -4 3 -35 13 -69 23 -71 19 -70 18
-40 112 13 41 22 54 42 58 24 6 25 6 3 12 -34 9 -51 -10 -78 -91 -14 -41 -25
-76 -25 -77 0 -12 59 -54 82 -59 34 -8 34 -10 3 -51 -14 -18 -25 -39 -25 -46
0 -33 124 -134 151 -123 8 3 26 23 39 45 14 22 32 40 40 40 9 0 27 -18 40 -40
14 -21 31 -42 39 -45 18 -7 90 40 130 87 l33 38 -31 39 c-17 21 -31 41 -31 44
0 3 13 8 29 12 15 3 40 18 55 34 l26 27 -25 75 c-14 41 -32 79 -41 85 -16 13
-57 7 -49 -6 6 -9 -64 -24 -73 -16 -3 4 -5 29 -3 57 2 56 -10 79 -42 79 -21 0
-21 0 1 -16z"/>
<path d="M4122 2339 c-40 -15 -130 -234 -169 -411 -25 -116 -25 -409 0 -525
38 -180 135 -415 176 -428 38 -12 201 92 201 128 0 6 -16 48 -36 94 -19 45
-47 127 -61 180 -24 89 -27 116 -27 283 -1 210 11 276 87 467 39 100 40 103
22 123 -10 11 -22 17 -26 14 -5 -3 -33 8 -63 25 -29 17 -57 31 -62 31 -12 -1
98 -69 112 -70 30 0 31 -23 4 -83 -145 -321 -145 -656 0 -998 l28 -66 -88 -47
-89 -47 -16 25 c-30 45 -86 191 -115 296 -82 302 -56 602 80 907 33 76 43 89
67 93 19 4 23 7 13 11 -8 4 -25 3 -38 -2z"/>
<path d="M4679 2339 c-8 -5 -9 -9 -4 -9 6 0 -18 -16 -53 -35 -34 -19 -66 -34
-70 -34 -48 8 -47 -26 2 -158 70 -186 89 -297 83 -478 -6 -172 -30 -281 -96
-434 l-39 -91 30 -30 c42 -44 152 -103 178 -95 40 13 138 248 176 425 26 120
26 401 1 520 -26 121 -71 253 -114 339 -38 75 -66 98 -94 80z m78 -94 c93
-211 126 -367 126 -585 0 -110 -6 -170 -22 -250 -24 -114 -85 -286 -126 -357
l-26 -44 -89 47 -89 47 16 36 c33 74 82 229 98 304 46 229 18 477 -80 706 -19
46 -34 85 -33 86 2 2 30 16 63 33 33 17 69 37 80 46 11 9 26 15 33 13 7 -1 29
-38 49 -82z"/>
<path d="M3365 2330 c3 -5 23 -10 43 -10 28 0 33 3 22 10 -20 13 -73 13 -65 0z"/>
<path d="M826 2275 c-9 -9 -16 -23 -16 -30 0 -8 -6 -18 -13 -22 -15 -9 -187
-247 -187 -259 0 -13 -113 -164 -123 -164 -6 0 -8 -2 -5 -5 3 -3 -3 -16 -13
-28 -41 -47 -299 -417 -299 -428 0 -6 20 -31 45 -56 32 -31 52 -43 68 -41 16
2 104 117 340 448 175 245 327 462 338 484 l20 38 -22 16 c-13 9 -32 17 -43
17 -16 2 -15 -2 9 -21 l29 -23 -41 -53 c-40 -53 -265 -367 -502 -702 l-123
-175 -44 32 c-24 18 -43 36 -44 41 0 8 236 345 419 599 163 225 208 292 203
305 -5 17 27 27 48 14 15 -9 18 -8 16 6 -4 23 -40 27 -60 7z"/>
<path d="M1370 2255 c-7 -9 -57 -120 -111 -248 l-97 -232 26 -22 c24 -20 38
-23 122 -23 75 0 99 4 116 18 12 9 38 61 58 114 21 54 41 100 46 103 5 3 27
-43 50 -102 22 -58 49 -112 58 -119 21 -16 222 -19 222 -4 0 6 7 10 15 10 9 0
18 6 21 13 4 11 -186 480 -201 495 -10 10 -259 2 -269 -9 -13 -12 102 -12 177
1 32 5 63 7 70 4 7 -2 18 -21 24 -42 6 -20 47 -125 91 -232 l80 -195 -111 -3
c-82 -2 -112 1 -118 10 -5 7 -30 70 -56 140 -26 70 -50 125 -52 122 -3 -3 -29
-64 -57 -137 l-51 -132 -116 -3 -116 -3 65 158 c36 87 80 193 97 237 20 51 38
81 51 86 21 9 21 9 0 9 -12 1 -27 -6 -34 -14z"/>
<path d="M2354 2261 c-41 -10 -124 -56 -158 -88 -69 -64 -85 -180 -41 -288 14
-33 25 -61 25 -63 0 -2 -22 -25 -49 -50 -72 -70 -86 -101 -86 -202 0 -106 23
-159 105 -242 43 -43 69 -60 110 -72 72 -21 143 -20 210 5 87 32 99 33 121 13
30 -27 228 -28 277 -1 17 10 32 22 32 29 0 6 -22 40 -48 77 -27 36 -52 72 -56
79 -4 7 9 31 33 60 23 27 41 52 41 57 0 8 -66 92 -86 110 -6 6 -14 17 -16 25
-3 9 -7 10 -11 3 -4 -5 14 -37 38 -69 24 -33 45 -63 45 -69 0 -5 -20 -30 -45
-55 l-44 -45 27 -41 c16 -23 42 -59 60 -82 18 -22 32 -41 32 -43 0 -2 -58 -6
-129 -7 l-128 -4 -22 28 -21 27 -58 -29 c-51 -26 -67 -29 -152 -29 -112 0
-151 16 -219 90 -58 62 -74 105 -75 190 0 97 33 157 123 225 l34 26 -26 39
c-69 107 -55 239 35 322 69 64 209 86 299 46 130 -58 190 -175 154 -300 -14
-48 -28 -68 -81 -120 l-65 -62 31 -35 c17 -19 40 -38 50 -41 21 -7 60 10 60
26 0 6 -10 3 -22 -5 -28 -20 -33 -20 -52 0 -26 26 -19 57 23 98 61 59 86 118
86 201 0 105 -21 144 -111 204 -93 62 -169 81 -250 62z"/>
<path d="M263 2252 c-6 -4 24 -7 67 -7 43 0 73 3 67 7 -7 4 -37 8 -67 8 -30 0
-60 -4 -67 -8z"/>
<path d="M205 2219 c-4 -6 -13 -8 -21 -5 -8 3 -14 0 -14 -6 0 -6 -11 -21 -24
-33 -24 -22 -46 -97 -46 -159 0 -92 72 -215 145 -250 57 -28 151 -19 200 18
134 103 152 343 32 421 l-42 28 32 -34 c45 -48 63 -97 63 -176 -1 -138 -74
-223 -192 -223 -68 0 -103 12 -142 48 -44 41 -66 98 -66 172 0 89 14 130 57
173 20 21 34 37 30 37 -3 0 -9 -5 -12 -11z"/>
<path d="M300 2091 c-13 -25 -13 -101 0 -121 5 -8 10 -10 10 -5 10 130 28 130
39 0 1 -5 6 -3 11 5 13 19 13 82 0 114 -11 31 -45 35 -60 7z"/>
<path d="M2388 2035 c-8 -19 -8 -31 0 -51 14 -29 33 -24 25 6 -4 15 0 20 16
20 15 0 22 -6 20 -17 -3 -31 1 -36 16 -23 18 15 20 61 3 78 -22 22 -67 14 -80
-13z"/>
<path d="M310 1939 c0 -5 9 -9 20 -9 11 0 20 4 20 8 0 4 -9 8 -20 9 -11 1 -20
-2 -20 -8z"/>
<path d="M2417 1933 c3 -7 9 -10 14 -7 14 8 11 21 -5 21 -8 0 -12 -6 -9 -14z"/>
<path d="M770 1751 c-94 -30 -165 -97 -176 -166 -29 -197 94 -364 252 -340 53
8 99 38 141 93 39 51 53 98 53 177 0 115 -24 157 -118 210 -50 28 -113 39
-152 26z m159 -43 c130 -90 118 -320 -22 -395 -41 -22 -141 -22 -182 -1 -40
22 -71 56 -90 100 -17 42 -20 145 -5 199 21 77 131 144 215 132 22 -3 60 -19
84 -35z"/>
<path d="M796 1595 c-20 -21 -24 -139 -3 -132 6 2 11 11 9 18 -2 7 0 29 3 48
8 44 20 27 29 -43 6 -48 6 -48 -19 -43 -16 3 -24 0 -22 -7 2 -6 13 -12 24 -14
51 -8 58 168 7 185 -7 2 -19 -3 -28 -12z"/>
<path d="M2686 1741 c-3 -4 12 -8 34 -8 22 0 37 4 34 8 -3 5 -18 9 -34 9 -16
0 -31 -4 -34 -9z"/>
<path d="M2620 1650 c0 -5 5 -10 10 -10 6 0 10 5 10 10 0 6 -4 10 -10 10 -5 0
-10 -4 -10 -10z"/>
<path d="M2321 1624 c-26 -33 -27 -56 -3 -81 25 -28 69 -45 69 -27 0 8 -8 14
-17 14 -21 0 -40 19 -40 40 0 29 30 18 52 -19 12 -20 23 -38 24 -39 1 -2 10 0
19 5 14 8 10 18 -30 71 -26 34 -48 62 -50 62 -2 0 -13 -12 -24 -26z"/>
<path d="M5998 1536 c-17 -16 -131 -463 -123 -476 4 -6 13 -10 21 -10 8 0 14
-4 14 -10 0 -6 36 -10 88 -10 72 0 92 3 104 18 9 9 33 62 53 117 68 182 125
346 125 360 0 19 -34 23 -140 15 l-95 -8 96 1 c52 0 100 -2 106 -6 6 -4 -19
-86 -71 -227 l-81 -220 -97 0 c-54 0 -98 3 -98 8 1 4 25 103 54 221 38 151 59
219 72 228 15 11 16 13 2 13 -9 0 -23 -6 -30 -14z"/>
<path d="M5067 1242 c-13 -14 -17 -38 -17 -93 0 -68 2 -78 25 -97 25 -22 31
-22 350 -22 398 0 375 -7 375 119 0 90 -8 111 -43 111 -18 0 -18 -1 2 -18 19
-15 22 -25 19 -87 l-3 -70 -347 -3 -348 -2 0 80 c0 74 2 81 23 90 21 8 21 9 1
9 -11 1 -28 -7 -37 -17z"/>
<path d="M5110 1240 c-14 -5 118 -7 294 -5 175 2 321 6 324 9 9 9 -590 5 -618
-4z"/>
<path d="M2500 1121 c-72 -28 -147 -81 -168 -120 -11 -20 -25 -60 -31 -89 -27
-127 -12 -142 142 -142 116 0 129 6 142 68 5 27 11 33 28 30 19 -3 22 -10 25
-57 4 -63 -13 -87 -65 -97 -48 -9 -33 -17 17 -9 52 9 80 49 80 115 0 59 -19
94 -52 98 -31 4 -58 -28 -58 -70 l0 -28 -121 0 -121 0 4 59 c17 243 334 339
510 154 62 -65 82 -115 82 -207 -1 -128 -45 -205 -141 -247 -42 -18 -43 -20
-43 -64 l0 -45 -114 0 -115 0 -3 111 c-3 102 -1 113 17 125 15 11 16 14 4 14
-38 0 -49 -32 -49 -146 0 -104 1 -112 24 -131 20 -18 36 -20 122 -19 116 1
144 13 144 56 0 19 8 37 22 48 72 58 100 90 125 140 25 50 28 68 28 152 0 83
-3 102 -27 150 -22 44 -40 64 -90 97 -35 23 -80 49 -100 58 -51 20 -161 19
-218 -4z"/>
<path d="M369 929 c-7 -14 -10 -61 -7 -135 2 -63 0 -114 -5 -114 -4 0 -5 5 -1
12 5 8 2 9 -10 5 -10 -4 -50 -8 -89 -8 l-72 -1 60 -9 c76 -12 140 -8 141 9 1
6 2 62 3 122 l1 110 69 0 68 0 6 -82 c4 -46 5 -100 4 -120 -1 -21 1 -38 5 -38
5 0 8 5 8 11 0 7 10 5 25 -5 27 -18 150 -23 160 -6 4 6 -21 10 -69 10 -111 0
-106 -6 -106 124 0 114 -7 136 -39 136 -11 0 -12 -3 -4 -8 6 -4 -17 -7 -52 -7
-35 0 -61 3 -58 8 2 4 -3 7 -11 7 -8 0 -20 -10 -27 -21z"/>
<path d="M511 794 c0 -11 3 -14 6 -6 3 7 2 16 -1 19 -3 4 -6 -2 -5 -13z"/>
<path d="M1002 788 c-7 -7 -12 -41 -12 -85 0 -63 3 -74 21 -84 l21 -11 -21
-22 c-17 -18 -21 -35 -21 -93 0 -107 -13 -103 348 -103 283 0 299 1 319 20 19
17 21 29 18 84 -3 64 -17 106 -35 106 -13 0 -13 -17 0 -25 6 -3 10 -35 10 -71
l0 -64 -315 0 -315 0 0 59 0 59 77 8 c43 4 172 4 288 0 139 -4 215 -3 225 4
10 7 -75 10 -283 8 -163 -2 -296 1 -294 6 1 4 134 9 294 10 280 1 293 2 320
22 26 20 28 26 27 88 -2 68 -14 96 -43 96 -14 -1 -14 -2 2 -11 13 -8 17 -24
17 -74 l0 -65 -315 0 -315 0 0 59 0 59 136 7 c75 4 216 5 313 1 127 -4 169 -3
151 5 -16 6 -126 9 -306 7 -155 -2 -280 0 -277 5 7 12 -22 8 -35 -5z"/>
<path d="M491 724 c0 -11 3 -14 6 -6 3 7 2 16 -1 19 -3 4 -6 -2 -5 -13z"/>
<path d="M400 700 c0 -16 2 -30 4 -30 2 0 6 14 8 30 3 17 1 30 -4 30 -4 0 -8
-13 -8 -30z"/>
<path d="M143 693 c-9 -3 -13 -31 -13 -87 0 -109 5 -114 130 -118 l95 -3 3
-105 c3 -128 12 -139 108 -140 86 0 94 11 94 127 0 50 3 98 6 107 5 13 23 16
98 16 125 0 136 10 131 116 -2 49 -9 80 -17 85 -20 13 -34 11 -20 -3 7 -7 12
-40 12 -80 l0 -68 -114 0 c-95 0 -115 -3 -120 -16 -3 -9 -6 -65 -6 -125 l0
-109 -70 0 -70 0 0 125 0 125 -114 0 c-129 0 -126 -2 -126 85 0 41 4 56 18 64
13 8 14 10 2 10 -8 0 -21 -3 -27 -6z"/>
<path d="M476 674 c-4 -14 -5 -28 -3 -31 3 -2 8 8 11 23 4 14 5 28 3 31 -3 2
-8 -8 -11 -23z"/>
<path d="M266 648 c-3 -7 -9 -28 -15 -47 -12 -37 -14 -58 -5 -49 7 8 33 108
28 108 -3 0 -6 -6 -8 -12z"/>
<path d="M456 604 c-4 -14 -5 -28 -3 -31 3 -2 8 8 11 23 4 14 5 28 3 31 -3 2
-8 -8 -11 -23z"/>
<path d="M571 614 c0 -11 3 -14 6 -6 3 7 2 16 -1 19 -3 4 -6 -2 -5 -13z"/>
<path d="M701 614 c0 -11 3 -14 6 -6 3 7 2 16 -1 19 -3 4 -6 -2 -5 -13z"/>
<path d="M687 571 c-4 -17 -3 -21 5 -13 5 5 8 16 6 23 -3 8 -7 3 -11 -10z"/>
<path d="M1822 568 c-8 -8 -12 -47 -12 -111 0 -83 3 -102 18 -113 12 -10 56
-13 152 -14 181 0 180 -1 180 129 0 98 -7 121 -39 121 -11 0 -11 -3 3 -13 16
-12 18 -25 14 -95 -3 -45 -8 -85 -12 -89 -10 -10 -217 -17 -261 -9 l-35 7 0
87 c0 55 4 92 12 100 7 7 8 12 2 12 -5 0 -15 -5 -22 -12z"/>
<path d="M1928 563 c34 -2 88 -2 120 0 31 2 3 3 -63 3 -66 0 -92 -1 -57 -3z"/>
<path d="M268 553 c7 -3 16 -2 19 1 4 3 -2 6 -13 5 -11 0 -14 -3 -6 -6z"/>
<path d="M328 553 c12 -2 30 -2 40 0 9 3 -1 5 -23 4 -22 0 -30 -2 -17 -4z"/>
<path d="M436 534 c-4 -14 -5 -28 -3 -31 3 -2 8 8 11 23 4 14 5 28 3 31 -3 2
-8 -8 -11 -23z"/>
<path d="M558 553 c7 -3 16 -2 19 1 4 3 -2 6 -13 5 -11 0 -14 -3 -6 -6z"/>
<path d="M416 464 c-4 -14 -5 -28 -3 -31 3 -2 8 8 11 23 4 14 5 28 3 31 -3 2
-8 -8 -11 -23z"/>
<path d="M1035 460 c-3 -5 -1 -10 4 -10 6 0 11 5 11 10 0 6 -2 10 -4 10 -3 0
-8 -4 -11 -10z"/>
<path d="M401 404 c0 -11 3 -14 6 -6 3 7 2 16 -1 19 -3 4 -6 -2 -5 -13z"/>
<path d="M502 374 c-7 -26 -10 -49 -7 -52 3 -3 5 2 5 11 0 9 3 17 8 17 4 0 8
16 9 35 2 19 2 35 0 35 -2 0 -8 -21 -15 -46z"/>
<path d="M2553 390 c-22 -13 -33 -16 -33 -7 -1 22 -50 -47 -61 -85 -19 -71 24
-166 95 -209 65 -39 139 -14 194 66 32 47 34 54 30 114 -3 50 -9 67 -26 81
-11 10 -18 21 -14 25 4 5 1 5 -6 1 -7 -4 -27 2 -46 13 -42 26 -92 27 -133 1z
m150 -27 c82 -52 74 -168 -15 -223 -112 -68 -254 63 -194 179 19 36 37 50 83
66 45 16 75 11 126 -22z"/>
<path d="M3233 395 c-41 -18 -43 -27 -3 -13 17 5 48 8 70 6 43 -4 54 6 18 16
-33 8 -49 7 -85 -9z"/>
<path d="M3377 384 c-4 -4 4 -19 17 -35 54 -63 38 -159 -33 -206 -124 -83
-278 78 -190 200 21 29 19 33 -11 17 -34 -18 -51 -109 -30 -164 17 -46 89
-115 127 -122 53 -10 105 10 141 55 54 67 66 129 38 194 -15 35 -49 71 -59 61z"/>
<path d="M510 326 c0 -8 -8 -17 -17 -19 -14 -4 -12 -5 5 -6 16 -1 22 5 22 19
0 11 -2 20 -5 20 -3 0 -5 -6 -5 -14z"/>
</g>
</svg>
